<?xml version="1.0" encoding="utf-8"?>
<!-- Generator: Adobe Illustrator 27.6.1, SVG Export Plug-In . SVG Version: 6.00 Build 0)  -->
<svg version="1.1" xmlns="http://www.w3.org/2000/svg" xmlns:xlink="http://www.w3.org/1999/xlink" x="0px" y="0px"
	 viewBox="320.20001220703125 248.60000610351562 2522.60009765625 475.8628234863281" style="enable-background:new 0 0 3163 973;" xml:space="preserve">
<style type="text/css">
	.st0{display:none;}
	.st1{display:inline;}
</style>
<g id="Layer_1" class="st0">
	<path class="st1" d="M831.7,486.5c37.4-43,60.2-99,60.2-160.5c0-135.3-109.7-244.9-244.9-244.9c-61.5,0-117.5,22.8-160.5,60.2
		c-43-37.4-99-60.2-160.5-60.2C190.7,81.1,81.1,190.7,81.1,326c0,61.5,22.8,117.5,60.2,160.5c-37.4,43-60.2,99-60.2,160.5
		c0,135.3,109.7,244.9,244.9,244.9c61.5,0,117.4-22.8,160.5-60.2c43,37.4,99,60.2,160.5,60.2c135.3,0,244.9-109.7,244.9-244.9
		C891.9,585.5,869.1,529.5,831.7,486.5L831.7,486.5z M824.3,326c0,97.8-79.6,177.4-177.4,177.4c-44.5,0-84.7-17-115.8-44.2
		c25-38.3,39.8-83.9,39.8-133.2s-14.6-95-39.6-133.3c31.1-27.1,71.3-44,115.6-44C744.7,148.7,824.3,228.2,824.3,326z M326,148.7
		c97.8,0,177.4,79.6,177.4,177.4c0,44.5-17,84.7-44.1,115.9c-38.4-25-84-39.9-133.2-39.9s-95,14.6-133.4,39.6
		c-27.1-31.1-44-71.3-44-115.7C148.7,228.2,228.2,148.7,326,148.7z M148.7,647c0-97.8,79.6-177.4,177.4-177.4
		c44.5,0,84.7,17,115.9,44.2c-25,38.4-39.9,84-39.9,133.2s14.6,95,39.6,133.3c-31.1,27.1-71.3,44-115.7,44
		C228.2,824.3,148.7,744.7,148.7,647z M647,824.3c-97.8,0-177.4-79.6-177.4-177.4c0-44.5,17-84.7,44.1-115.9
		c38.4,25,84,39.9,133.2,39.9s95-14.6,133.4-39.6c27.1,31.1,44,71.3,44,115.7C824.3,744.7,744.7,824.3,647,824.3z"/>
	<path class="st1" d="M1115.3,633.1l-61.3-315.6c16.6-6.2,31.3-9.3,44.1-9.3c14.5,0,25.1,3.2,31.7,9.6c6.6,6.4,11.2,18.4,14,36.1
		l21.8,133.9c6.6,40.1,10.7,68.2,12.5,84.1c1.7,15.9,2.8,24.2,3.4,24.9c0.5,0.7,1.6,1,3.4,1l43.1-278.2c12.8-2.4,30.6-3.6,53.5-3.6
		c22.8,0,40.5,1.2,52.9,3.6l39.5,271.5c0.3,3.1,0.9,5,1.8,5.7c0.9,0.7,2.2,1,3.9,1c3.1-32.5,8.3-69.4,15.6-110.6l29.1-174.4
		c10-2.1,21.6-3.1,34.8-3.1c15.9,0,29.9,1.9,42.1,5.7l3.6,4.7l-68.5,346.7c-22.5,2.4-43.6,3.6-63.3,3.6c-19.7,0-33.7-2.4-42-7.3
		c-8.3-4.8-13.7-14.9-16.1-30.1L1297,520.4c-6.2-40.8-11.2-81-15.1-120.4h-3.6c-3.8,33.6-9.5,73.7-17.1,120.4l-23.4,146.4
		c-23.5,2.4-44.9,3.6-64.1,3.6c-19.2,0-33-2.4-41.3-7.3C1124.1,658.3,1118.4,648.3,1115.3,633.1z M1628.2,593.1
		c-9.3,0-16.3-0.2-20.8-0.5l-22.3,75.3c-8.3,2.1-19.9,3.1-34.8,3.1c-16.6,0-30.1-1.9-40.5-5.7l-2.6-4.2l114.2-348.3
		c13.5-2.1,29.2-3.1,47.2-3.1c20.4,0,36.7,1.2,48.8,3.6l112.1,348.8c-12.1,6.6-25.8,9.9-41,9.9c-18,0-30.6-3.1-37.9-9.3
		c-7.3-6.2-13.5-18.2-18.7-35.8l-9.9-34.3c-4.5,0.3-11.2,0.5-20.2,0.5H1628.2z M1626.6,527.7l20.8-0.5h37.9c1.7,0,4.8,0.1,9.1,0.3
		c4.3,0.2,7.5,0.3,9.6,0.3l-8.8-32.2c-8.3-29.1-17.8-64.7-28.6-106.9h-3.1c-2.8,14.9-11.1,47.9-24.9,99.1L1626.6,527.7z
		 M2004.5,597.2h89.8c0,13.8-0.9,25.7-2.6,35.6c-1.7,9.9-7.3,18.3-16.6,25.4c-9.3,7.1-21.6,10.6-36.9,10.6h-117.3
		c-14.9,0-26.7-4.3-35.3-13c-8.7-8.7-13-20.4-13-35.3V312.8l3.6-3.6h30.6c32.5,0,48.8,17.6,48.8,52.9v237.2
		C1970.9,597.9,1987.2,597.2,2004.5,597.2z M2423.4,309.1l3.6,3.6v353c-13.8,3.1-30.2,4.7-49.1,4.7c-18.9,0-35.6-1-50.1-3.1
		l-81.5-185.8c-9.7-21.1-19.5-45.5-29.6-73.2l-1.6,0.5c4.1,50.5,6.2,102.3,6.2,155.2v103.3c-10.7,2.1-23.7,3.1-38.9,3.1
		c-15.2,0-28-1-38.4-3.1v-353c13.2-3.1,29-4.7,47.5-4.7c18.5,0,35,1,49.6,3.1l80.5,185.3c14.5,34.3,25.3,60.6,32.2,78.9l2.1-1
		c-4.1-48.1-6.2-99.1-6.2-153.1v-63.3c0-18,3.6-30.9,10.9-38.7c7.3-7.8,19-11.7,35.3-11.7H2423.4z M2781.1,312.8v223.7
		c0,44.3-12.1,78.5-36.3,102.5c-24.2,24.1-58.8,36.1-103.8,36.1c-45,0-79.7-12-104.1-36.1c-24.4-24.1-36.6-58.2-36.6-102.5V312.8
		l3.6-3.6h30.6c32.9,0,49.3,17.6,49.3,52.9v175.5c0,24.2,4.3,42.2,13,54c8.7,11.8,23.4,17.6,44.1,17.6c20.8,0,35.5-5.9,44.1-17.6
		s13-29.8,13-54V312.8c10.7-2.1,24.6-3.1,41.5-3.1C2756.1,309.7,2770,310.7,2781.1,312.8z M2989.2,381.3l0.5,38.4v247.6
		c-11.8,2.1-25.8,3.1-42,3.1c-16.3,0-29.9-1-41-3.1v-286l-33.2,0.5H2820c-2.1-10-3.1-21.5-3.1-34.5c0-13,1-24.5,3.1-34.5h256.9
		c2.8,9,4.2,19.9,4.2,32.7c0,12.8-3.5,22.1-10.4,27.8c-6.9,5.7-18,8.6-33.2,8.6h-15.1l-32.7-0.5H2989.2z"/>
	<path class="st1" d="M2441.2,247V62.3h70.7c13.4,0,24.4,2.1,33.3,6.3c8.9,4.1,15.5,9.8,19.9,17c4.5,7.2,6.7,15.4,6.7,24.5
		c0,7.5-1.5,14-4.3,19.3c-2.9,5.3-6.8,9.6-11.6,12.9c-4.9,3.3-10.3,5.7-16.3,7.1v1.8c6.6,0.4,12.8,2.4,18.8,6
		c6.1,3.6,11,8.7,14.9,15.3c3.9,6.6,5.8,14.6,5.8,24c0,9.6-2.3,18.2-6.9,25.8c-4.6,7.6-11.6,13.6-20.9,17.9
		c-9.3,4.4-21,6.6-35.2,6.6H2441.2z M2474.7,219h36c12.2,0,20.9-2.3,26.2-6.9c5.4-4.7,8.1-10.7,8.1-18c0-5.5-1.4-10.4-4.1-14.8
		c-2.7-4.4-6.6-7.9-11.6-10.5c-5-2.6-10.9-3.9-17.8-3.9h-36.9V219z M2474.7,140.8h33.1c5.8,0,11-1.1,15.6-3.2
		c4.6-2.2,8.3-5.2,10.9-9.1c2.7-4,4.1-8.7,4.1-14.1c0-7.2-2.5-13-7.6-17.7c-5-4.6-12.4-6.9-22.3-6.9h-33.8V140.8z M2610.7,247V62.3
		h120.1v28.1h-86.7v50.2h80.5v28.1h-80.5v50.4h87.4V247H2610.7z M2759.4,90.3V62.3h147.4v28.1h-57.1V247h-33.2V90.3H2759.4z
		 M2939.1,247h-35.7l65-184.7h41.3l65.1,184.7h-35.7l-49.3-146.8h-1.4L2939.1,247z M2940.3,174.6h97.4v26.9h-97.4V174.6z"/>
</g>
<g id="Layer_2">
	<g>
		<path d="M2145.9,350.5c0-16.4-11.2-31-27-33.7c13.6-4.4,23.8-15,23.8-31.9c0-20.8-16.2-35.9-45.3-35.9h-57.5v139.4h60.1
			C2128.9,388.2,2145.9,372.7,2145.9,350.5z M2067.8,271.4h25.6c13.2,0,20.8,6.4,20.8,17.6c0,11.4-7.6,17.4-20.8,17.4h-25.6V271.4z
			 M2067.8,365.5v-37.5h27.6c13.6,0,22.2,7.2,22.2,19.2c0,11.8-8,18.4-21.6,18.4H2067.8z"/>
		<polygon points="2289.1,365.5 2236.2,365.5 2236.2,328.5 2283.1,328.5 2283.1,306.3 2236.2,306.3 2236.2,271.4 2289.1,271.4 
			2289.1,248.6 2208.2,248.6 2208.2,388.2 2289.1,388.2 		"/>
		<polygon points="2384.1,388.2 2412.1,388.2 2412.1,271.4 2449.2,271.4 2449.2,248.8 2347,248.8 2347,271.4 2384.1,271.4 		"/>
		<path d="M2551.1,248.6L2501,388.2h29.4l9.2-26.6h55.5l9.2,26.6h29.6l-50.1-139.6H2551.1z M2547.1,339.3l20.2-58.3l20.2,58.3
			H2547.1z"/>
		<path d="M901.5,609c-35.5-8.4-68-24.4-95.9-46.1c-8.3-6.5-20.4-3.6-24.7,6c-14,31-30.9,60.5-50.4,87.8c-5,7.1-3.5,17.2,3.6,22.4
			c24.6,17.7,51.4,32.5,79.8,44.1c5.3,2.2,11.3,1.4,15.9-1.9c32.5-23.9,60.2-53.8,81.7-88.1C917.3,623.8,912.1,611.5,901.5,609z"/>
		<path d="M947.6,374.9c-2.1-6.5-8.2-11.2-15.4-11.2h-90.6c-9.8,0-17.3,8.7-16,18.4c8.2,60,55.5,107.5,115.4,116
			c9.3,1.3,17.8-5.5,18.6-14.8c0-0.1,0-0.2,0-0.3c0.1-1.6,0.2-3.3,0.3-4.9c0.1-0.7,0.1-1.4,0.1-2.1c0.1-1.3,0.2-2.8,0.2-4.1
			c0.1-2.7,0.1-5.4,0.1-8.1v-0.5c-0.1-30.1-4.2-59.3-12-86.9C947.9,376,947.8,375.4,947.6,374.9z"/>
		<path d="M691.3,363.7H587.7c-8.5,0-15.6,6.6-16.1,15.1c-4,67.3-34.3,127.5-80.8,170.4c-31.2,28.8-69.6,49.8-112.3,60
			c-10.7,2.5-15.8,14.8-10,24c21.4,34.3,49.3,64.2,81.7,88.1c4.6,3.4,10.6,4.1,15.9,1.9c33.5-13.6,64.7-31.8,92.7-53.7
			c31.3-24.5,58.6-53.6,81.1-86.4c39.9-58.1,64.4-127.6,67.5-202.6C707.9,371.2,700.5,363.7,691.3,363.7z"/>
		<path d="M454.4,382.1c1.3-9.8-6.1-18.4-16.1-18.4H348c-7.1,0-13.2,4.6-15.3,11.1c-0.3,0.6-0.3,1.2-0.5,1.8
			c-7.8,27.7-12,57-12,87.2c0,7.7,0.3,15.3,0.8,22.8c2.1,7.7,9.8,12.8,18,11.6C399,489.6,446.2,442,454.4,382.1z"/>
		<path d="M1749.4,491.6c-13.6-23.6-40-40.1-77.8-40.1c-62.7,0-112.7,51-112.7,135.5s49.9,135.8,112.7,135.8
			c37.2,0,64.1-16.6,77.8-40.1v36.7h92.4V454.8h-92.4V491.6z M1701.3,641.9c-26.4,0-48.1-19.8-48.1-55.2c0-35.8,21.7-54.7,48.1-54.7
			c26,0,48.1,19.3,48.1,54.7C1749.4,622.6,1727.2,641.9,1701.3,641.9z"/>
		<polygon points="1894.6,363.7 1894.6,719.3 1987,719.3 1987,248.6 1894.6,248.6 		"/>
		<path d="M2212.9,452.4c-37.2,0-65.1,17.5-80.6,40.1v-37.8h-92.4v264.5h92.4V577.3c0-30.7,17-48.6,44.3-48.6
			c26.4,0,43.4,18,43.4,48.6v141.8h92.4V565.1C2312.3,495.8,2274.2,452.4,2212.9,452.4z"/>
		<path d="M2540.9,596.7c0,30.7-16.9,48.6-43.8,48.6c-26.4,0-43.8-18-43.8-48.6l-0.1-141.9h-91.9v153.7
			c0,69.8,38.2,113.2,99.5,113.2c37.2,0,65.1-17.5,80.1-40.1v37.8h92.9V454.7h-92.9V596.7z"/>
		<path d="M2815.9,640.5c-15.6,0-21.7-6.1-21.7-20.3v-88.6h48.1v-76.9h-48.1v-66.5h-92.9v66.5h-32.5v76.9h32.5v87.2
			c0,75.8,43,100.4,101.4,100.4h40.1v-78.7H2815.9z"/>
		<polygon points="1431,605.9 1396.2,454.7 1286.8,454.7 1251.9,605.9 1217.1,454.7 1135.4,454.7 1196.4,719.3 1307.4,719.3 
			1341.4,571.7 1375.5,719.3 1486.6,719.3 1547.5,454.7 1465.8,454.7 		"/>
	</g>
</g>
</svg>
