<svg width="3163" height="974" viewBox="0 0 3163 974" fill="none" xmlns="http://www.w3.org/2000/svg">
    <g clip-path="url(#clip0_1803_34)">
        <path d="M832.689 488.49C870.098 445.507 892.892 389.449 892.892 327.99C892.892 192.716 783.23 83.0542 647.956 83.0542C586.497 83.0542 530.47 105.848 487.486 143.237C444.463 105.848 388.476 83.0542 327.017 83.0542C191.743 83.0542 82.0811 192.716 82.0811 327.99C82.0811 389.449 104.875 445.476 142.263 488.46C104.875 531.443 82.0811 587.47 82.0811 648.929C82.0811 784.203 191.743 893.865 327.017 893.865C388.476 893.865 444.463 871.071 487.486 833.683C530.47 871.071 586.497 893.865 647.956 893.865C783.23 893.865 892.892 784.203 892.892 648.929C892.892 587.47 870.098 531.443 832.709 488.46L832.689 488.49ZM825.321 327.99C825.321 425.774 745.74 505.355 647.956 505.355C603.483 505.355 563.277 488.328 532.122 461.145C557.135 422.814 571.943 377.216 571.943 327.99C571.943 278.764 557.297 233.034 532.324 194.672C563.429 167.581 603.584 150.625 647.956 150.625C745.74 150.625 825.321 230.206 825.321 327.99ZM327.017 150.625C424.801 150.625 504.382 230.206 504.382 327.99C504.382 372.463 487.355 412.669 460.243 443.855C421.872 418.811 376.243 404.004 327.017 404.004C277.791 404.004 232.061 418.649 193.659 443.652C166.608 412.517 149.652 372.362 149.652 327.99C149.652 230.206 229.233 150.625 327.017 150.625ZM149.652 648.929C149.652 551.145 229.233 471.564 327.017 471.564C371.49 471.564 411.696 488.591 442.882 515.743C417.838 554.105 403.03 599.703 403.03 648.929C403.03 698.156 417.676 743.885 442.679 782.247C411.544 809.338 371.419 826.294 327.017 826.294C229.233 826.294 149.652 746.713 149.652 648.929ZM647.956 826.294C550.172 826.294 470.591 746.713 470.591 648.929C470.591 604.456 487.618 564.25 514.73 533.064C553.101 558.108 598.73 572.916 647.956 572.916C697.182 572.916 742.912 558.27 781.314 533.267C808.365 564.402 825.321 604.558 825.321 648.929C825.321 746.713 745.74 826.294 647.956 826.294Z" fill="#E93281"/>
        <path d="M1117.31 603.947L1056.05 288.344C1072.66 282.115 1087.37 279 1100.18 279C1114.71 279 1125.27 282.201 1131.84 288.603C1138.42 295.005 1143.09 307.031 1145.86 324.679L1167.66 458.603C1174.23 498.746 1178.38 526.777 1180.12 542.695C1181.85 558.614 1182.97 566.919 1183.49 567.611C1184.01 568.303 1185.13 568.649 1186.86 568.649L1229.95 290.42C1242.75 287.997 1260.57 286.786 1283.41 286.786C1306.25 286.786 1323.9 287.997 1336.36 290.42L1375.81 561.901C1376.16 565.016 1376.76 566.919 1377.63 567.611C1378.49 568.303 1379.79 568.649 1381.52 568.649C1384.63 536.12 1389.83 499.265 1397.09 458.084L1426.16 283.672C1436.2 281.595 1447.79 280.557 1460.94 280.557C1476.86 280.557 1490.87 282.461 1502.99 286.267L1506.62 290.939L1438.1 637.688C1415.61 640.11 1394.5 641.321 1374.77 641.321C1355.05 641.321 1341.03 638.899 1332.73 634.054C1324.42 629.209 1319.06 619.174 1316.63 603.947L1298.99 491.306C1292.76 450.471 1287.74 410.329 1283.93 370.878H1280.3C1276.49 404.446 1270.78 444.588 1263.17 491.306L1239.81 637.688C1216.28 640.11 1194.91 641.321 1175.7 641.321C1156.5 641.321 1142.74 638.899 1134.44 634.054C1126.13 629.209 1120.42 619.174 1117.31 603.947ZM1630.16 563.978C1620.82 563.978 1613.9 563.805 1609.4 563.459L1587.08 638.726C1578.77 640.802 1567.18 641.84 1552.3 641.84C1535.69 641.84 1522.19 639.937 1511.81 636.131L1509.22 631.978L1623.41 283.672C1636.91 281.595 1652.66 280.557 1670.65 280.557C1691.07 280.557 1707.33 281.768 1719.44 284.191L1831.57 633.016C1819.45 639.591 1805.79 642.879 1790.56 642.879C1772.56 642.879 1759.93 639.764 1752.67 633.535C1745.4 627.306 1739.17 615.367 1733.98 597.718L1724.12 563.459C1719.62 563.805 1712.87 563.978 1703.87 563.978H1630.16ZM1628.6 498.573L1649.37 498.054H1687.26C1688.99 498.054 1692.02 498.14 1696.35 498.313C1700.67 498.486 1703.87 498.573 1705.95 498.573L1697.12 466.39C1688.82 437.321 1679.3 401.677 1668.57 359.458H1665.46C1662.69 374.339 1654.39 407.387 1640.54 458.603L1628.6 498.573ZM2006.5 568.13H2096.3C2096.3 581.973 2095.44 593.825 2093.7 603.688C2091.97 613.55 2086.44 622.029 2077.09 629.123C2067.75 636.217 2055.47 639.764 2040.24 639.764H1922.93C1908.05 639.764 1896.28 635.438 1887.63 626.787C1878.98 618.136 1874.65 606.37 1874.65 591.489V283.672L1878.28 280.038H1908.91C1941.44 280.038 1957.7 297.687 1957.7 332.985V570.207C1972.93 568.822 1989.2 568.13 2006.5 568.13ZM2425.4 280.038L2429.03 283.672V636.65C2415.19 639.764 2398.84 641.321 2379.98 641.321C2361.12 641.321 2344.42 640.283 2329.89 638.207L2248.39 452.374C2238.7 431.265 2228.84 406.868 2218.8 379.183L2217.25 379.703C2221.4 430.227 2223.48 481.962 2223.48 534.909V638.207C2212.75 640.283 2199.77 641.321 2184.54 641.321C2169.32 641.321 2156.51 640.283 2146.13 638.207V285.229C2159.28 282.115 2175.11 280.557 2193.63 280.557C2212.14 280.557 2228.67 281.595 2243.2 283.672L2323.66 468.985C2338.19 503.245 2348.92 529.545 2355.84 547.886L2357.92 546.848C2353.77 498.746 2351.69 447.703 2351.69 393.718V330.389C2351.69 312.394 2355.32 299.504 2362.59 291.718C2369.86 283.931 2381.62 280.038 2397.89 280.038H2425.4ZM2783.05 283.672V507.397C2783.05 551.693 2770.94 585.866 2746.71 609.917C2722.49 633.968 2687.88 645.993 2642.9 645.993C2597.91 645.993 2563.22 633.968 2538.82 609.917C2514.42 585.866 2502.22 551.693 2502.22 507.397V283.672L2505.86 280.038H2536.48C2569.36 280.038 2585.8 297.687 2585.8 332.985V508.436C2585.8 532.66 2590.12 550.655 2598.77 562.42C2607.43 574.186 2622.13 580.069 2642.9 580.069C2663.66 580.069 2678.37 574.186 2687.02 562.42C2695.67 550.655 2700 532.66 2700 508.436V283.672C2710.72 281.595 2724.57 280.557 2741.52 280.557C2758.13 280.557 2771.98 281.595 2783.05 283.672ZM2991.2 352.191L2991.72 390.603V638.207C2979.96 640.283 2965.94 641.321 2949.68 641.321C2933.41 641.321 2919.74 640.283 2908.67 638.207V352.191L2875.45 352.71H2821.98C2819.9 342.674 2818.87 331.168 2818.87 318.191C2818.87 305.214 2819.9 293.707 2821.98 283.672H3078.93C3081.7 292.669 3083.08 303.57 3083.08 316.374C3083.08 329.178 3079.62 338.435 3072.7 344.145C3065.78 349.855 3054.7 352.71 3039.48 352.71H3024.42L2991.72 352.191H2991.2Z" fill="black"/>
        <path d="M2408.01 215V22.2727H2481.79C2495.72 22.2727 2507.29 24.4685 2516.51 28.8601C2525.8 33.1889 2532.73 39.1175 2537.31 46.6459C2541.95 54.1744 2544.27 62.7066 2544.27 72.2425C2544.27 80.0846 2542.77 86.7975 2539.76 92.381C2536.75 97.9019 2532.7 102.388 2527.62 105.838C2522.54 109.289 2516.86 111.767 2510.58 113.272V115.154C2517.42 115.531 2523.98 117.633 2530.25 121.46C2536.59 125.224 2541.76 130.556 2545.78 137.457C2549.79 144.358 2551.8 152.702 2551.8 162.489C2551.8 172.464 2549.39 181.436 2544.56 189.403C2539.73 197.308 2532.45 203.551 2522.72 208.13C2513 212.71 2500.77 215 2486.02 215H2408.01ZM2442.92 185.827H2480.47C2493.14 185.827 2502.27 183.412 2507.85 178.581C2513.5 173.688 2516.32 167.414 2516.32 159.76C2516.32 154.051 2514.91 148.907 2512.09 144.327C2509.27 139.685 2505.25 136.046 2500.04 133.411C2494.84 130.713 2488.63 129.364 2481.41 129.364H2442.92V185.827ZM2442.92 104.238H2477.46C2483.48 104.238 2488.91 103.14 2493.74 100.945C2498.57 98.6861 2502.37 95.5179 2505.13 91.44C2507.95 87.2994 2509.36 82.4059 2509.36 76.7596C2509.36 69.2939 2506.73 63.1457 2501.46 58.315C2496.25 53.4842 2488.5 51.0689 2478.21 51.0689H2442.92V104.238ZM2587.47 215V22.2727H2712.82V51.5394H2622.39V103.862H2706.33V133.129H2622.39V185.733H2713.58V215H2587.47ZM2745.27 51.5394V22.2727H2899.04V51.5394H2839.47V215H2804.84V51.5394H2745.27ZM2935.44 215H2898.18L2966.03 22.2727H3009.13L3077.07 215H3039.8L2988.33 61.7969H2986.82L2935.44 215ZM2936.66 139.434H3038.3V167.477H2936.66V139.434Z" fill="black"/>
    </g>
    <defs>
        <clipPath id="clip0_1803_34">
            <rect width="3162.16" height="972.973" fill="white" transform="translate(0 0.973145)"/>
        </clipPath>
    </defs>
</svg>
