<svg width="3163" height="973" viewBox="0 0 3163 973" fill="none" xmlns="http://www.w3.org/2000/svg">
<path d="M831.689 486.517C869.098 443.534 891.892 387.476 891.892 326.017C891.892 190.743 782.23 81.0811 646.956 81.0811C585.497 81.0811 529.47 103.875 486.486 141.263C443.463 103.875 387.476 81.0811 326.017 81.0811C190.743 81.0811 81.0811 190.743 81.0811 326.017C81.0811 387.476 103.875 443.503 141.263 486.486C103.875 529.47 81.0811 585.497 81.0811 646.956C81.0811 782.23 190.743 891.892 326.017 891.892C387.476 891.892 443.463 869.098 486.486 831.709C529.47 869.098 585.497 891.892 646.956 891.892C782.23 891.892 891.892 782.23 891.892 646.956C891.892 585.497 869.098 529.47 831.709 486.486L831.689 486.517ZM824.321 326.017C824.321 423.801 744.74 503.382 646.956 503.382C602.483 503.382 562.277 486.355 531.122 459.172C556.135 420.841 570.943 375.243 570.943 326.017C570.943 276.791 556.297 231.061 531.324 192.699C562.429 165.608 602.584 148.652 646.956 148.652C744.74 148.652 824.321 228.233 824.321 326.017ZM326.017 148.652C423.801 148.652 503.382 228.233 503.382 326.017C503.382 370.49 486.355 410.696 459.243 441.882C420.872 416.838 375.243 402.03 326.017 402.03C276.791 402.03 231.061 416.676 192.659 441.679C165.608 410.544 148.652 370.388 148.652 326.017C148.652 228.233 228.233 148.652 326.017 148.652ZM148.652 646.956C148.652 549.172 228.233 469.591 326.017 469.591C370.49 469.591 410.696 486.618 441.882 513.77C416.838 552.132 402.03 597.73 402.03 646.956C402.03 696.182 416.676 741.912 441.679 780.274C410.544 807.365 370.419 824.321 326.017 824.321C228.233 824.321 148.652 744.74 148.652 646.956ZM646.956 824.321C549.172 824.321 469.591 744.74 469.591 646.956C469.591 602.483 486.618 562.277 513.73 531.091C552.101 556.135 597.73 570.943 646.956 570.943C696.182 570.943 741.912 556.297 780.314 531.294C807.365 562.429 824.321 602.584 824.321 646.956C824.321 744.74 744.74 824.321 646.956 824.321Z" fill="black"/>
<path d="M1115.31 633.056L1054.05 317.452C1070.66 311.223 1085.37 308.108 1098.18 308.108C1112.71 308.108 1123.27 311.309 1129.84 317.711C1136.42 324.114 1141.09 336.139 1143.86 353.788L1165.66 487.712C1172.23 527.854 1176.38 555.885 1178.12 571.804C1179.85 587.722 1180.97 596.028 1181.49 596.72C1182.01 597.412 1183.13 597.758 1184.86 597.758L1227.95 319.528C1240.75 317.106 1258.57 315.895 1281.41 315.895C1304.25 315.895 1321.9 317.106 1334.36 319.528L1373.81 591.01C1374.16 594.124 1374.76 596.028 1375.63 596.72C1376.49 597.412 1377.79 597.758 1379.52 597.758C1382.63 565.229 1387.83 528.374 1395.09 487.193L1424.16 312.78C1434.2 310.704 1445.79 309.666 1458.94 309.666C1474.86 309.666 1488.87 311.569 1500.99 315.376L1504.62 320.047L1436.1 666.796C1413.61 669.219 1392.5 670.43 1372.77 670.43C1353.05 670.43 1339.03 668.007 1330.73 663.163C1322.42 658.318 1317.06 648.282 1314.63 633.056L1296.99 520.414C1290.76 479.579 1285.74 439.437 1281.93 399.986H1278.3C1274.49 433.554 1268.78 473.697 1261.17 520.414L1237.81 666.796C1214.28 669.219 1192.91 670.43 1173.7 670.43C1154.5 670.43 1140.74 668.007 1132.44 663.163C1124.13 658.318 1118.42 648.282 1115.31 633.056ZM1628.16 593.086C1618.82 593.086 1611.9 592.913 1607.4 592.567L1585.08 667.834C1576.77 669.911 1565.18 670.949 1550.3 670.949C1533.69 670.949 1520.19 669.046 1509.81 665.239L1507.21 661.086L1621.41 312.78C1634.91 310.704 1650.66 309.666 1668.65 309.666C1689.07 309.666 1705.33 310.877 1717.44 313.299L1829.57 662.124C1817.45 668.699 1803.79 671.987 1788.56 671.987C1770.56 671.987 1757.93 668.873 1750.67 662.643C1743.4 656.414 1737.17 644.476 1731.98 626.827L1722.12 592.567C1717.62 592.913 1710.87 593.086 1701.87 593.086H1628.16ZM1626.6 527.681L1647.37 527.162H1685.26C1686.99 527.162 1690.02 527.249 1694.35 527.422C1698.67 527.595 1701.87 527.681 1703.95 527.681L1695.12 495.498C1686.82 466.429 1677.3 430.786 1666.57 388.567H1663.46C1660.69 403.447 1652.39 436.495 1638.54 487.712L1626.6 527.681ZM2004.5 597.239H2094.3C2094.3 611.081 2093.43 622.933 2091.7 632.796C2089.97 642.659 2084.44 651.137 2075.09 658.231C2065.75 665.325 2053.47 668.872 2038.24 668.872H1920.93C1906.05 668.872 1894.28 664.547 1885.63 655.895C1876.98 647.244 1872.65 635.478 1872.65 620.598V312.78L1876.28 309.147H1906.91C1939.44 309.147 1955.7 326.795 1955.7 362.093V599.315C1970.93 597.931 1987.2 597.239 2004.5 597.239ZM2423.4 309.147L2427.03 312.78V665.758C2413.19 668.873 2396.84 670.43 2377.98 670.43C2359.12 670.43 2342.42 669.392 2327.89 667.315L2246.39 481.483C2236.7 460.373 2226.84 435.976 2216.8 408.292L2215.25 408.811C2219.4 459.335 2221.48 511.071 2221.48 564.017V667.315C2210.75 669.392 2197.77 670.43 2182.54 670.43C2167.32 670.43 2154.51 669.392 2144.13 667.315V314.337C2157.28 311.223 2173.11 309.666 2191.63 309.666C2210.14 309.666 2226.67 310.704 2241.2 312.78L2321.66 498.094C2336.19 532.353 2346.92 558.653 2353.84 576.994L2355.92 575.956C2351.77 527.854 2349.69 476.811 2349.69 422.826V359.498C2349.69 341.503 2353.32 328.612 2360.59 320.826C2367.86 313.04 2379.62 309.147 2395.89 309.147H2423.4ZM2781.05 312.78V536.506C2781.05 580.801 2768.94 614.974 2744.71 639.025C2720.49 663.076 2685.88 675.102 2640.9 675.102C2595.91 675.102 2561.22 663.076 2536.82 639.025C2512.42 614.974 2500.22 580.801 2500.22 536.506V312.78L2503.86 309.147H2534.48C2567.36 309.147 2583.8 326.795 2583.8 362.093V537.544C2583.8 561.768 2588.12 579.763 2596.77 591.529C2605.43 603.295 2620.13 609.178 2640.9 609.178C2661.66 609.178 2676.37 603.295 2685.02 591.529C2693.67 579.763 2698 561.768 2698 537.544V312.78C2708.72 310.704 2722.57 309.666 2739.52 309.666C2756.13 309.666 2769.98 310.704 2781.05 312.78ZM2989.2 381.299L2989.72 419.712V667.315C2977.96 669.392 2963.94 670.43 2947.68 670.43C2931.41 670.43 2917.74 669.392 2906.67 667.315V381.299L2873.45 381.818H2819.98C2817.9 371.783 2816.87 360.276 2816.87 347.299C2816.87 334.322 2817.9 322.816 2819.98 312.78H3076.93C3079.7 321.778 3081.08 332.678 3081.08 345.483C3081.08 358.287 3077.62 367.544 3070.7 373.254C3063.78 378.964 3052.7 381.818 3037.48 381.818H3022.42L2989.72 381.299H2989.2Z" fill="black"/>
<path d="M2441.22 247V62.2727H2511.94C2525.29 62.2727 2536.38 64.3774 2545.22 68.5866C2554.12 72.7358 2560.76 78.4183 2565.15 85.6342C2569.6 92.8501 2571.83 101.028 2571.83 110.168C2571.83 117.685 2570.38 124.119 2567.5 129.471C2564.61 134.763 2560.73 139.062 2555.86 142.369C2550.99 145.677 2545.55 148.052 2539.54 149.495V151.299C2546.09 151.66 2552.38 153.674 2558.39 157.342C2564.46 160.95 2569.42 166.062 2573.27 172.676C2577.12 179.291 2579.04 187.288 2579.04 196.669C2579.04 206.23 2576.73 214.829 2572.1 222.466C2567.47 230.043 2560.49 236.026 2551.17 240.415C2541.85 244.805 2530.13 247 2516 247H2441.22ZM2474.68 219.038H2510.67C2522.82 219.038 2531.57 216.723 2536.92 212.093C2542.33 207.403 2545.04 201.389 2545.04 194.053C2545.04 188.581 2543.69 183.65 2540.98 179.261C2538.27 174.811 2534.43 171.323 2529.43 168.798C2524.44 166.212 2518.49 164.919 2511.58 164.919H2474.68V219.038ZM2474.68 140.836H2507.79C2513.56 140.836 2518.76 139.784 2523.39 137.679C2528.02 135.514 2531.66 132.478 2534.31 128.569C2537.01 124.6 2538.36 119.91 2538.36 114.498C2538.36 107.342 2535.84 101.449 2530.79 96.8189C2525.8 92.1887 2518.37 89.8736 2508.51 89.8736H2474.68V140.836ZM2610.7 247V62.2727H2730.84V90.3246H2644.16V140.475H2724.62V168.527H2644.16V218.948H2731.56V247H2610.7ZM2759.4 90.3246V62.2727H2906.79V90.3246H2849.69V247H2816.5V90.3246H2759.4ZM2939.14 247H2903.42L2968.45 62.2727H3009.76L3074.89 247H3039.17L2989.83 100.156H2988.39L2939.14 247ZM2940.31 174.57H3037.73V201.45H2940.31V174.57Z" fill="black"/>
</svg>
