<svg version="1.1" id="Layer_1" xmlns="http://www.w3.org/2000/svg" xmlns:xlink="http://www.w3.org/1999/xlink" x="0px" y="0px"
	 width="100%" viewBox="0 0 400 400" enable-background="new 0 0 400 400" xml:space="preserve">
<path fill="#F25D00" opacity="1.000000" stroke="none" 
	d="
M200.000000,401.000000 
	C133.354004,401.000000 67.208015,401.000000 1.031010,401.000000 
	C1.031010,267.729004 1.031010,134.458008 1.031010,1.093500 
	C134.229279,1.093500 267.458649,1.093500 400.843994,1.093500 
	C400.843994,134.333191 400.843994,267.666565 400.843994,401.000000 
	C334.124725,401.000000 267.312378,401.000000 200.000000,401.000000 
M217.990707,318.355225 
	C217.994614,317.903076 217.998520,317.450928 218.752960,317.007446 
	C220.612976,317.403229 222.472992,317.798981 224.586807,318.248779 
	C224.586807,316.238770 224.586807,314.646790 224.586807,312.776825 
	C225.524200,312.776825 226.315781,312.773956 227.107346,312.777252 
	C240.436325,312.832520 253.765640,312.960419 267.094025,312.896576 
	C270.655670,312.879547 275.001282,310.059265 275.968018,317.198700 
	C279.308167,312.691650 282.076904,308.955627 284.348907,305.889893 
	C283.641998,303.822845 282.188660,301.450684 282.119019,299.038635 
	C281.845062,289.547058 281.735748,280.032654 282.094360,270.546722 
	C282.366089,263.359619 280.162567,255.865616 284.254242,249.014877 
	C284.572205,248.482498 284.287231,247.352814 283.929626,246.691589 
	C280.985107,241.247330 277.025391,237.771896 270.187408,237.923569 
	C256.528198,238.226593 242.856094,238.123688 229.192368,237.949341 
	C224.564804,237.890289 220.257782,237.685394 215.637711,239.536911 
	C208.487808,242.402252 206.654724,245.011673 208.199829,253.000000 
	C207.132156,253.000000 206.064484,253.000000 204.794754,252.513901 
	C204.253250,252.665421 203.711761,252.816956 203.170258,252.968475 
	C203.777115,254.304947 204.383972,255.641434 204.994781,257.917969 
	C204.996490,271.185699 205.003174,284.453400 204.997955,297.721130 
	C204.995132,304.923859 204.985992,304.923859 197.552460,304.298767 
	C197.364609,302.326721 197.023666,300.355438 197.014191,298.382538 
	C196.959763,287.058929 197.513184,275.700775 196.784653,264.423828 
	C196.341782,257.568542 196.396011,251.269424 199.907242,245.188049 
	C200.271011,244.558044 198.906357,242.355301 197.836624,241.621765 
	C196.574966,240.756653 194.754959,240.718903 193.188049,240.282883 
	C190.528854,239.542908 187.886017,238.149109 185.222794,238.115952 
	C168.905640,237.912735 152.579590,237.793365 136.268539,238.168732 
	C132.127731,238.264023 127.911789,239.960754 123.978104,241.539078 
	C122.609177,242.088333 121.208931,244.474411 121.155289,246.066498 
	C120.872673,254.453995 121.013229,262.855835 121.012360,271.252716 
	C121.011406,280.411713 120.898552,289.572693 121.050766,298.729218 
	C121.214409,308.572937 124.477776,312.951202 131.918915,312.926422 
	C150.670761,312.863983 169.421707,312.538788 188.173386,312.356812 
	C188.789200,312.350830 189.409027,312.755371 189.527328,313.444916 
	C188.099716,314.379578 186.672089,315.314209 185.244476,316.248840 
	C185.272354,316.800323 185.300247,317.351776 185.328125,317.903229 
	C187.847687,318.185516 190.807434,319.431488 192.785385,318.527985 
	C195.880692,317.114166 198.312012,314.246674 201.501892,312.419464 
	C202.458817,312.623596 203.415741,312.827728 204.372650,313.031891 
	C204.248093,311.691284 204.123535,310.350677 204.077927,308.309387 
	C205.717606,307.206665 207.357269,306.103943 209.017838,305.750488 
	C210.689850,308.159210 212.361862,310.567932 213.508804,313.290436 
	C212.667603,313.856934 211.826401,314.423431 210.867706,314.573395 
	C210.558197,314.355988 210.248672,314.138611 209.939178,313.921204 
	C209.912949,314.052948 209.826263,314.272491 209.870010,314.302551 
	C210.229630,314.550079 210.613495,314.762390 210.738342,315.581573 
	C211.171204,316.726440 211.604065,317.871307 212.319168,319.645447 
	C214.441132,321.606842 216.351532,321.610260 217.990707,318.355225 
M130.964676,70.146019 
	C126.561462,69.925369 125.206543,72.326782 125.221382,76.367546 
	C125.289833,95.016518 125.295807,113.666191 125.200462,132.314987 
	C125.176285,137.043869 127.320328,138.818298 131.905701,138.794662 
	C150.555206,138.698502 169.206055,138.681427 187.855087,138.817627 
	C192.337570,138.850372 194.143402,137.142929 194.116699,132.648697 
	C194.005875,113.999939 193.968231,95.349159 194.142014,76.701347 
	C194.188812,71.677673 192.281143,70.020927 187.321884,70.075760 
	C168.840729,70.280083 150.355850,70.148026 130.964676,70.146019 
M209.007950,166.568665 
	C208.679855,183.359879 208.392014,200.152023 207.994553,216.941605 
	C207.898605,220.995163 209.040146,224.629013 213.017120,225.700165 
	C217.904129,227.016418 223.066315,227.777924 228.128647,227.886154 
	C241.611206,228.174423 255.107224,227.809341 268.591370,228.057510 
	C275.300507,228.180984 280.380096,225.582367 284.599579,220.782272 
	C283.840698,218.850586 282.574707,217.091995 282.539673,215.309204 
	C282.235901,199.857880 282.220581,184.401077 281.959900,168.948593 
	C281.890625,164.842285 281.746826,160.993591 288.181732,159.988708 
	C285.301666,159.119278 282.596832,158.957077 282.379211,158.135803 
	C280.208588,149.944412 274.771210,152.603546 269.657867,153.969498 
	C269.502167,154.011108 269.326202,153.977814 269.159668,153.977829 
	C255.004837,153.979294 240.849869,154.008652 226.695328,153.944061 
	C225.043655,153.936539 223.394348,153.409821 221.743927,153.123795 
	C221.597488,152.688416 221.451035,152.253021 221.304581,151.817627 
	C222.611755,151.232178 223.918930,150.646729 225.226105,150.061279 
	C224.777496,149.390732 224.328888,148.720169 223.880280,148.049606 
	C222.057098,148.929031 220.208923,149.761032 218.419403,150.704300 
	C217.190048,151.352280 215.854172,152.966614 214.891235,152.743683 
	C211.266830,151.904648 210.328583,154.313522 209.820557,156.712677 
	C209.208710,159.601898 209.249756,162.629410 209.007950,166.568665 
M160.500000,226.020248 
	C170.155914,226.016647 179.813629,225.903992 189.466797,226.065262 
	C193.124741,226.126389 195.367599,224.702911 195.660690,221.154709 
	C196.024719,216.747787 195.991501,212.302292 196.003830,207.873123 
	C196.041382,194.388214 195.981155,180.902924 196.060333,167.418381 
	C196.071777,165.469910 196.439835,163.466110 196.990356,161.589874 
	C198.227493,157.373657 196.371048,154.423004 191.896210,154.060455 
	C189.745010,153.886169 187.570175,153.990738 185.406052,153.990479 
	C166.760132,153.988159 148.114075,153.951706 129.468369,154.015869 
	C123.926849,154.034943 122.905067,155.386597 122.948738,160.854019 
	C123.049782,173.505722 123.170830,186.161606 122.932144,198.809174 
	C122.854851,202.904984 121.683395,206.980148 120.930580,211.563019 
	C124.826912,213.587082 124.639153,213.412170 120.665565,217.677505 
	C119.385490,219.051559 119.379440,221.612518 118.687645,223.983154 
	C121.053635,223.612854 123.282616,222.865494 123.531677,223.287277 
	C125.773590,227.083984 129.373627,225.935349 132.530548,225.977386 
	C141.518951,226.097107 150.509995,226.020004 160.500000,226.020248 
M203.339920,210.516220 
	C203.339920,211.628174 203.339920,212.740128 203.339920,213.852081 
	C203.859802,213.781372 204.379669,213.710663 204.899551,213.639954 
	C204.509949,212.466919 204.120361,211.293900 203.339920,210.516220 
M116.916840,306.692078 
	C116.924911,307.503143 116.932991,308.314178 116.941071,309.125244 
	C117.367462,308.988495 117.793861,308.851746 118.220261,308.715027 
	C117.965660,307.985626 117.711067,307.256226 116.916840,306.692078 
M285.203705,312.565765 
	C285.871613,312.339020 286.539520,312.112274 287.207428,311.885559 
	C286.828461,311.456421 286.449524,311.027283 286.070557,310.598145 
	C285.658417,311.132294 285.246277,311.666443 285.203705,312.565765 
M199.039688,221.773346 
	C199.335495,222.239487 199.631317,222.705627 199.927124,223.171768 
	C200.137558,222.972214 200.348007,222.772659 200.558456,222.573120 
	C200.159637,222.210297 199.760818,221.847488 199.039688,221.773346 
M287.512360,213.098358 
	C287.654785,213.445587 287.797211,213.792801 287.939636,214.140015 
	C288.146027,213.976990 288.352386,213.813950 288.558777,213.650909 
	C288.311707,213.380707 288.064606,213.110504 287.512360,213.098358 
z"/>
<path fill="#FFFCF8" opacity="1.000000" stroke="none" 
	d="
M131.418518,70.144119 
	C150.355850,70.148026 168.840729,70.280083 187.321884,70.075760 
	C192.281143,70.020927 194.188812,71.677673 194.142014,76.701347 
	C193.968231,95.349159 194.005875,113.999939 194.116699,132.648697 
	C194.143402,137.142929 192.337570,138.850372 187.855087,138.817627 
	C169.206055,138.681427 150.555206,138.698502 131.905701,138.794662 
	C127.320328,138.818298 125.176285,137.043869 125.200462,132.314987 
	C125.295807,113.666191 125.289833,95.016518 125.221382,76.367546 
	C125.206543,72.326782 126.561462,69.925369 131.418518,70.144119 
z"/>
<path fill="#E96511" opacity="1.000000" stroke="none" 
	d="
M190.026993,312.968536 
	C189.409027,312.755371 188.789200,312.350830 188.173386,312.356812 
	C169.421707,312.538788 150.670761,312.863983 131.918915,312.926422 
	C124.477776,312.951202 121.214409,308.572937 121.050766,298.729218 
	C120.898552,289.572693 121.011406,280.411713 121.012360,271.252716 
	C121.013229,262.855835 120.872673,254.453995 121.155289,246.066498 
	C121.208931,244.474411 122.609177,242.088333 123.978104,241.539078 
	C127.911789,239.960754 132.127731,238.264023 136.268539,238.168732 
	C152.579590,237.793365 168.905640,237.912735 185.222794,238.115952 
	C187.886017,238.149109 190.528854,239.542908 193.188049,240.282883 
	C194.754959,240.718903 196.574966,240.756653 197.836624,241.621765 
	C198.906357,242.355301 200.271011,244.558044 199.907242,245.188049 
	C196.396011,251.269424 196.341782,257.568542 196.784653,264.423828 
	C197.513184,275.700775 196.959763,287.058929 197.014191,298.382538 
	C197.023666,300.355438 197.364609,302.326721 197.759918,305.044464 
	C197.716080,310.832733 195.498169,313.699951 190.026993,312.968536 
M153.500000,309.986694 
	C164.828506,309.982971 176.160400,309.816528 187.483871,310.053436 
	C192.182281,310.151764 194.107224,308.557190 194.070129,303.761353 
	C193.927109,285.270447 193.920639,266.777161 194.062958,248.286316 
	C194.100418,243.417862 192.410477,241.512451 187.346878,241.575531 
	C169.024063,241.803787 150.696716,241.654556 132.371155,241.683197 
	C126.341705,241.692627 125.503372,242.543518 125.492920,248.662979 
	C125.461639,266.988373 125.571068,285.314758 125.398849,303.638611 
	C125.353081,308.508942 127.421516,310.147797 132.009827,310.028687 
	C138.835648,309.851471 145.669540,309.985229 153.500000,309.986694 
z"/>
<path fill="#E96511" opacity="1.000000" stroke="none" 
	d="
M209.000610,253.000000 
	C206.654724,245.011673 208.487808,242.402252 215.637711,239.536911 
	C220.257782,237.685394 224.564804,237.890289 229.192368,237.949341 
	C242.856094,238.123688 256.528198,238.226593 270.187408,237.923569 
	C277.025391,237.771896 280.985107,241.247330 283.929626,246.691589 
	C284.287231,247.352814 284.572205,248.482498 284.254242,249.014877 
	C280.162567,255.865616 282.366089,263.359619 282.094360,270.546722 
	C281.735748,280.032654 281.845062,289.547058 282.119019,299.038635 
	C282.188660,301.450684 283.641998,303.822845 284.348907,305.889893 
	C282.076904,308.955627 279.308167,312.691650 275.968018,317.198700 
	C275.001282,310.059265 270.655670,312.879547 267.094025,312.896576 
	C253.765640,312.960419 240.436325,312.832520 227.107346,312.777252 
	C226.315781,312.773956 225.524200,312.776825 224.586807,312.776825 
	C224.586807,314.646790 224.586807,316.238770 224.586807,318.248779 
	C222.472992,317.798981 220.612976,317.403229 218.112732,316.812439 
	C216.326294,315.403870 215.180099,314.190247 214.033890,312.976654 
	C212.361862,310.567932 210.689850,308.159210 209.010162,304.907074 
	C209.001862,287.042450 209.001236,270.021210 209.000610,253.000000 
M279.764069,293.484375 
	C279.758270,278.318848 279.719025,263.153198 279.768341,247.987869 
	C279.782074,243.770813 278.367737,241.545776 273.650604,241.587997 
	C254.820343,241.756561 235.987381,241.758423 217.156601,241.638306 
	C212.587418,241.609161 211.008713,243.448334 211.041687,247.914917 
	C211.178253,266.412415 211.158768,284.912079 211.031815,303.409790 
	C211.000351,307.994354 212.559570,310.070679 217.422134,310.028320 
	C236.418335,309.862854 255.417130,309.879974 274.413910,309.999359 
	C278.137482,310.022766 279.610443,308.325256 279.707214,304.974335 
	C279.808228,301.477264 279.751678,297.975677 279.764069,293.484375 
z"/>
<path fill="#E86512" opacity="1.000000" stroke="none" 
	d="
M209.008057,166.082855 
	C209.249756,162.629410 209.208710,159.601898 209.820557,156.712677 
	C210.328583,154.313522 211.266830,151.904648 214.891235,152.743683 
	C215.854172,152.966614 217.190048,151.352280 218.419403,150.704300 
	C220.208923,149.761032 222.057098,148.929031 223.880280,148.049606 
	C224.328888,148.720169 224.777496,149.390732 225.226105,150.061279 
	C223.918930,150.646729 222.611755,151.232178 221.304581,151.817627 
	C221.451035,152.253021 221.597488,152.688416 221.743927,153.123795 
	C223.394348,153.409821 225.043655,153.936539 226.695328,153.944061 
	C240.849869,154.008652 255.004837,153.979294 269.159668,153.977829 
	C269.326202,153.977814 269.502167,154.011108 269.657867,153.969498 
	C274.771210,152.603546 280.208588,149.944412 282.379211,158.135803 
	C282.596832,158.957077 285.301666,159.119278 288.181732,159.988708 
	C281.746826,160.993591 281.890625,164.842285 281.959900,168.948593 
	C282.220581,184.401077 282.235901,199.857880 282.539673,215.309204 
	C282.574707,217.091995 283.840698,218.850586 284.599579,220.782272 
	C280.380096,225.582367 275.300507,228.180984 268.591370,228.057510 
	C255.107224,227.809341 241.611206,228.174423 228.128647,227.886154 
	C223.066315,227.777924 217.904129,227.016418 213.017120,225.700165 
	C209.040146,224.629013 207.898605,220.995163 207.994553,216.941605 
	C208.392014,200.152023 208.679855,183.359879 209.008057,166.082855 
M211.078430,185.499985 
	C211.089996,196.482224 211.165573,207.464966 211.078720,218.446426 
	C211.047928,222.340210 212.430573,224.285004 216.594147,224.268005 
	C235.895691,224.189148 255.197937,224.212173 274.499573,224.291779 
	C278.140839,224.306793 279.705170,222.531219 279.710205,219.155792 
	C279.739014,199.853745 279.730591,180.551651 279.715576,161.249573 
	C279.712769,157.630981 278.184540,155.920044 274.222260,155.949463 
	C255.089035,156.091553 235.953537,156.080688 216.820190,155.941055 
	C212.346863,155.908417 210.993988,157.974884 211.054642,162.036560 
	C211.166428,169.522812 211.081436,177.012009 211.078430,185.499985 
z"/>
<path fill="#E76717" opacity="1.000000" stroke="none" 
	d="
M160.000000,226.020294 
	C150.509995,226.020004 141.518951,226.097107 132.530548,225.977386 
	C129.373627,225.935349 125.773590,227.083984 123.531677,223.287277 
	C123.282616,222.865494 121.053635,223.612854 118.687645,223.983154 
	C119.379440,221.612518 119.385490,219.051559 120.665565,217.677505 
	C124.639153,213.412170 124.826912,213.587082 120.930580,211.563019 
	C121.683395,206.980148 122.854851,202.904984 122.932144,198.809174 
	C123.170830,186.161606 123.049782,173.505722 122.948738,160.854019 
	C122.905067,155.386597 123.926849,154.034943 129.468369,154.015869 
	C148.114075,153.951706 166.760132,153.988159 185.406052,153.990479 
	C187.570175,153.990738 189.745010,153.886169 191.896210,154.060455 
	C196.371048,154.423004 198.227493,157.373657 196.990356,161.589874 
	C196.439835,163.466110 196.071777,165.469910 196.060333,167.418381 
	C195.981155,180.902924 196.041382,194.388214 196.003830,207.873123 
	C195.991501,212.302292 196.024719,216.747787 195.660690,221.154709 
	C195.367599,224.702911 193.124741,226.126389 189.466797,226.065262 
	C179.813629,225.903992 170.155914,226.016647 160.000000,226.020294 
M194.015106,211.452667 
	C194.010773,195.463593 194.030548,179.474442 193.991058,163.485458 
	C193.973587,156.412872 193.528473,155.980408 186.734253,155.971329 
	C168.746628,155.947296 150.758942,155.934723 132.771317,155.950714 
	C126.346519,155.956436 125.294754,157.020248 125.290848,163.546631 
	C125.280182,181.367599 125.311783,199.188583 125.328720,217.009567 
	C125.334671,223.268326 126.289780,224.277496 132.527634,224.289719 
	C149.016312,224.322006 165.505661,224.400635 181.993576,224.288483 
	C193.957169,224.207108 194.046509,226.050888 194.015106,211.452667 
z"/>
<path fill="#F45D01" opacity="1.000000" stroke="none" 
	d="
M208.600220,253.000000 
	C209.001236,270.021210 209.001862,287.042450 208.999710,304.532440 
	C207.357269,306.103943 205.717606,307.206665 203.721008,308.737701 
	C202.584259,310.109009 201.804443,311.052002 201.024628,311.994965 
	C198.312012,314.246674 195.880692,317.114166 192.785385,318.527985 
	C190.807434,319.431488 187.847687,318.185516 185.328125,317.903229 
	C185.300247,317.351776 185.272354,316.800323 185.244476,316.248840 
	C186.672089,315.314209 188.099716,314.379578 189.777161,313.206726 
	C195.498169,313.699951 197.716080,310.832733 197.974548,305.398132 
	C204.985992,304.923859 204.995132,304.923859 204.997955,297.721130 
	C205.003174,284.453400 204.996490,271.185699 204.992691,257.050842 
	C204.992676,255.122482 204.994736,254.061234 204.996796,253.000000 
	C206.064484,253.000000 207.132156,253.000000 208.600220,253.000000 
z"/>
<path fill="#F65D01" opacity="1.000000" stroke="none" 
	d="
M213.771347,313.133545 
	C215.180099,314.190247 216.326294,315.403870 217.737473,316.808105 
	C217.998520,317.450928 217.994614,317.903076 217.562225,318.688202 
	C215.434799,319.019501 213.735870,319.017822 212.036926,319.016174 
	C211.604065,317.871307 211.171204,316.726440 210.869171,315.290771 
	C211.000015,315.000000 210.985199,314.989929 210.985199,314.989929 
	C211.826401,314.423431 212.667603,313.856934 213.771347,313.133545 
z"/>
<path fill="#E96511" opacity="1.000000" stroke="none" 
	d="
M201.263260,312.207214 
	C201.804443,311.052002 202.584259,310.109009 203.681519,309.088043 
	C204.123535,310.350677 204.248093,311.691284 204.372650,313.031891 
	C203.415741,312.827728 202.458817,312.623596 201.263260,312.207214 
z"/>
<path fill="#E86512" opacity="1.000000" stroke="none" 
	d="
M203.535339,210.318542 
	C204.120361,211.293900 204.509949,212.466919 204.899551,213.639954 
	C204.379669,213.710663 203.859802,213.781372 203.339920,213.852081 
	C203.339920,212.740128 203.339920,211.628174 203.535339,210.318542 
z"/>
<path fill="#E96511" opacity="1.000000" stroke="none" 
	d="
M204.895782,252.756958 
	C204.994736,254.061234 204.992676,255.122482 204.990723,256.580811 
	C204.383972,255.641434 203.777115,254.304947 203.170258,252.968475 
	C203.711761,252.816956 204.253250,252.665421 204.895782,252.756958 
z"/>
<path fill="#E96511" opacity="1.000000" stroke="none" 
	d="
M212.178055,319.330811 
	C213.735870,319.017822 215.434799,319.019501 217.558411,319.027283 
	C216.351532,321.610260 214.441132,321.606842 212.178055,319.330811 
z"/>
<path fill="#E96511" opacity="1.000000" stroke="none" 
	d="
M117.186661,306.609436 
	C117.711067,307.256226 117.965660,307.985626 118.220261,308.715027 
	C117.793861,308.851746 117.367462,308.988495 116.941071,309.125244 
	C116.932991,308.314178 116.924911,307.503143 117.186661,306.609436 
z"/>
<path fill="#E96511" opacity="1.000000" stroke="none" 
	d="
M285.018921,312.383179 
	C285.246277,311.666443 285.658417,311.132294 286.070557,310.598145 
	C286.449524,311.027283 286.828461,311.456421 287.207428,311.885559 
	C286.539520,312.112274 285.871613,312.339020 285.018921,312.383179 
z"/>
<path fill="#E76717" opacity="1.000000" stroke="none" 
	d="
M199.200836,221.628998 
	C199.760818,221.847488 200.159637,222.210297 200.558456,222.573120 
	C200.348007,222.772659 200.137558,222.972214 199.927124,223.171768 
	C199.631317,222.705627 199.335495,222.239487 199.200836,221.628998 
z"/>
<path fill="#E86512" opacity="1.000000" stroke="none" 
	d="
M287.664948,212.969330 
	C288.064606,213.110504 288.311707,213.380707 288.558777,213.650909 
	C288.352386,213.813950 288.146027,213.976990 287.939636,214.140015 
	C287.797211,213.792801 287.654785,213.445587 287.664948,212.969330 
z"/>
<path fill="#E96511" opacity="1.000000" stroke="none" 
	d="
M210.995026,314.992676 
	C210.613495,314.762390 210.229630,314.550079 209.870010,314.302551 
	C209.826263,314.272491 209.912949,314.052948 209.939178,313.921204 
	C210.248672,314.138611 210.558197,314.355988 210.926453,314.781677 
	C210.985199,314.989929 211.000015,315.000000 210.995026,314.992676 
z"/>
<path fill="#FEFCF9" opacity="1.000000" stroke="none" 
	d="
M153.000000,309.986694 
	C145.669540,309.985229 138.835648,309.851471 132.009827,310.028687 
	C127.421516,310.147797 125.353081,308.508942 125.398849,303.638611 
	C125.571068,285.314758 125.461639,266.988373 125.492920,248.662979 
	C125.503372,242.543518 126.341705,241.692627 132.371155,241.683197 
	C150.696716,241.654556 169.024063,241.803787 187.346878,241.575531 
	C192.410477,241.512451 194.100418,243.417862 194.062958,248.286316 
	C193.920639,266.777161 193.927109,285.270447 194.070129,303.761353 
	C194.107224,308.557190 192.182281,310.151764 187.483871,310.053436 
	C176.160400,309.816528 164.828506,309.982971 153.000000,309.986694 
z"/>
<path fill="#FEFCF9" opacity="1.000000" stroke="none" 
	d="
M279.764038,293.980225 
	C279.751678,297.975677 279.808228,301.477264 279.707214,304.974335 
	C279.610443,308.325256 278.137482,310.022766 274.413910,309.999359 
	C255.417130,309.879974 236.418335,309.862854 217.422134,310.028320 
	C212.559570,310.070679 211.000351,307.994354 211.031815,303.409790 
	C211.158768,284.912079 211.178253,266.412415 211.041687,247.914917 
	C211.008713,243.448334 212.587418,241.609161 217.156601,241.638306 
	C235.987381,241.758423 254.820343,241.756561 273.650604,241.587997 
	C278.367737,241.545776 279.782074,243.770813 279.768341,247.987869 
	C279.719025,263.153198 279.758270,278.318848 279.764038,293.980225 
z"/>
<path fill="#FEFDF9" opacity="1.000000" stroke="none" 
	d="
M211.078430,184.999969 
	C211.081436,177.012009 211.166428,169.522812 211.054642,162.036560 
	C210.993988,157.974884 212.346863,155.908417 216.820190,155.941055 
	C235.953537,156.080688 255.089035,156.091553 274.222260,155.949463 
	C278.184540,155.920044 279.712769,157.630981 279.715576,161.249573 
	C279.730591,180.551651 279.739014,199.853745 279.710205,219.155792 
	C279.705170,222.531219 278.140839,224.306793 274.499573,224.291779 
	C255.197937,224.212173 235.895691,224.189148 216.594147,224.268005 
	C212.430573,224.285004 211.047928,222.340210 211.078720,218.446426 
	C211.165573,207.464966 211.089996,196.482224 211.078430,184.999969 
z"/>
<path fill="#FFFDF9" opacity="1.000000" stroke="none" 
	d="
M194.017670,211.943024 
	C194.046509,226.050888 193.957169,224.207108 181.993576,224.288483 
	C165.505661,224.400635 149.016312,224.322006 132.527634,224.289719 
	C126.289780,224.277496 125.334671,223.268326 125.328720,217.009567 
	C125.311783,199.188583 125.280182,181.367599 125.290848,163.546631 
	C125.294754,157.020248 126.346519,155.956436 132.771317,155.950714 
	C150.758942,155.934723 168.746628,155.947296 186.734253,155.971329 
	C193.528473,155.980408 193.973587,156.412872 193.991058,163.485458 
	C194.030548,179.474442 194.010773,195.463593 194.017670,211.943024 
z"/>
</svg>